<svg width="1374" height="877" viewBox="0 0 1374 877" fill="none" xmlns="http://www.w3.org/2000/svg">
<path d="M0 358V420V809C4 861.5 49.5 875 70 876H131C143.8 874.4 147 863.334 147 858V233C145 209 122.5 213.167 115 219L21 313C4.6 329.4 0.166667 349.834 0 358Z" fill="black"/>
<path d="M1303 876H1242C1233.2 874.8 1228.33 866.167 1227 862L1227 583C1227 574.2 1218.33 569.333 1214 568H1204C1201.2 568.8 1198.17 571.667 1197 573L915 855C893.8 873 871.5 876.5 863 876C754.333 875.833 531.6 875.6 510 876C488.4 876.4 469 864.167 462 858L201 597C187 581.8 182.5 562 182 554V321.5C182.4 304.3 194.833 286 201 279L463 17C478.2 3.4 500.667 0 510 0H1130C1215 9.5 1213.5 95.5 1181 125.5L879 427.5C870.2 434.3 861.333 437.333 858 438H340C319.2 427.2 325.333 412.833 331 407L446 292H777C802.2 292 820.167 279.333 826 273L922 177C934.8 158.6 920.667 149.333 912 147H572C544 147 525.667 160 520 166.5L261.5 425C253.1 433.4 258 445.166 261.5 450L686.5 875L1103 458C1120.2 440.4 1144.17 436.667 1154 437H1301C1354.2 437 1371.83 485.667 1374 510V798V803C1369.6 859.8 1324.83 875.333 1303 876Z" fill="black"/>
</svg>
