<svg width="238" height="50" viewBox="0 0 238 50" fill="none" xmlns="http://www.w3.org/2000/svg">
<path fill-rule="evenodd" clip-rule="evenodd" d="M69.707 49.1651H73.1306C74.356 49.1277 76.8685 48.2559 77.1154 45.0681V44.7874V28.6235C76.9938 27.2578 76.0042 24.5264 73.0184 24.5264H64.768C64.2161 24.5077 62.871 24.7173 61.9057 25.7051L38.5298 49.109L14.6768 25.2561C14.4804 24.9848 14.2054 24.3244 14.6768 23.8529L29.185 9.34475C29.5031 8.97994 30.532 8.25032 32.1035 8.25032H51.1859C51.6723 8.38127 52.4655 8.90136 51.7471 9.93405L46.3591 15.322C46.0317 15.6775 45.0234 16.3884 43.609 16.3884H25.0318L18.5775 22.8427C18.2594 23.1701 17.9152 23.9764 19.0826 24.5826H48.1551C48.3422 24.5452 48.8399 24.3749 49.3337 23.9933L66.2834 7.04364C68.1074 5.3599 68.1916 0.533184 63.421 0H28.6238C28.0999 0 26.839 0.190824 25.9859 0.954118L11.2813 15.6588C10.9352 16.0516 10.2373 17.0787 10.2149 18.0441V31.093C10.243 31.542 10.4955 32.6533 11.2813 33.5064L25.9298 48.1549C26.3227 48.501 27.4115 49.1876 28.6238 49.1651C29.8361 49.1427 42.3369 49.1558 48.4358 49.1651C48.9128 49.1932 50.1644 48.9968 51.3542 47.9865L67.1814 32.1594C67.2468 32.0846 67.4171 31.9237 67.5742 31.8788H68.1355C68.3787 31.9536 68.8651 32.2267 68.8651 32.7206L68.8651 48.3794C68.94 48.6133 69.2131 49.0978 69.707 49.1651ZM0 23.5731V20.0933C0.0093541 19.635 0.258173 18.4882 1.17862 17.5677L6.45433 12.292C6.87526 11.9646 8.13807 11.7308 8.25032 13.0778V48.1556C8.25032 48.455 8.07072 49.0761 7.35232 49.1659H3.92872C2.77817 49.1098 0.224498 48.3521 0 45.4055V23.5731ZM88.7425 19.4453L91.2111 16.9768V29.3195C91.2111 29.5565 90.9807 29.8462 90.8655 29.9614L88.4463 32.1831V20.334C88.4463 19.86 88.6438 19.5441 88.7425 19.4453ZM196.175 16.9773L193.706 19.4458C193.608 19.5446 193.292 19.7421 192.818 19.7421H180.969L183.19 17.3229C183.305 17.2077 183.595 16.9773 183.832 16.9773H196.175ZM191.04 22.2106C190.234 23.1322 188.414 24.9754 187.584 24.9754H183.635V29.5176H196.175V32.1836H182.45C181.956 32.0684 180.969 31.6306 180.969 30.8012V22.2106H191.04ZM203.876 17.2728L201.407 19.7413H213.75C213.987 19.7413 214.277 19.5109 214.392 19.3957L216.614 16.9766H204.764C204.29 16.9766 203.975 17.174 203.876 17.2728ZM204.172 22.2099H201.506V30.8005C201.506 31.6694 202.493 32.0841 202.987 32.1829H216.811V29.5168H204.172V22.2099ZM160.331 16.9773L162.8 19.4458C162.898 19.5446 163.214 19.7421 163.688 19.7421H175.537L173.316 17.3229C173.2 17.2077 172.911 16.9773 172.674 16.9773H160.331ZM169.317 22.2106V32.1836H166.651V22.2106H169.317ZM142.459 19.4458L139.99 16.9773H152.333C152.57 16.9773 152.86 17.2077 152.975 17.3229L155.197 19.7421H143.347C142.874 19.7421 142.558 19.5446 142.459 19.4458ZM142.755 29.5176V22.2106H139.99V30.8012C139.99 31.6701 140.978 32.0849 141.471 32.1836H153.715C154.9 32.1836 155.262 31.0645 155.295 30.505V22.2106H152.531V29.5176H142.755ZM98.8146 32.1829V19.5439L97.2348 17.964C97.1031 17.6842 97.0373 17.0951 97.8272 16.9766H99.6045C99.802 16.9766 100.394 17.1938 101.184 18.0627L111.454 28.3319V16.9766H114.12V32.1829H111.454L101.579 22.3086L101.579 32.1829H98.8146ZM121.921 17.2728L119.452 19.7413H131.795C132.032 19.7413 132.322 19.5109 132.437 19.3957L134.658 16.9766H122.809C122.335 16.9766 122.019 17.174 121.921 17.2728ZM126.068 25.0734C126.779 25.0734 128.668 23.2302 129.524 22.3086H119.452V32.1829H122.118V25.0734H126.068ZM221.058 16.9766C220.762 16.993 220.228 17.2333 220.465 18.0627L222.045 19.5439V32.1829H224.81V25.9621H234.585V32.1829H237.35V24.7772C237.334 24.2506 236.995 23.1973 235.77 23.1973H224.81L224.81 16.9766H221.058ZM234.585 16.9766H237.35V22.3086H234.585V16.9766Z" fill="url(#paint0_linear_62_345)"/>
<defs>
<linearGradient id="paint0_linear_62_345" x1="-26.6866" y1="-8.50738" x2="42.9328" y2="150.203" gradientUnits="userSpaceOnUse">
<stop offset="0.0666658" stop-color="#007BFF"/>
<stop offset="0.521931" stop-color="#528BC7"/>
<stop offset="1" stop-color="#989898"/>
</linearGradient>
</defs>
</svg>
