<svg width="3495" height="877" viewBox="0 0 3495 877" fill="none" xmlns="http://www.w3.org/2000/svg">
<path d="M0 358V420V809C4 861.5 49.5 875 70 876H131C143.8 874.4 147 863.334 147 858V233C145 209 122.5 213.167 115 219L21 313C4.6 329.4 0.166667 349.834 0 358Z" fill="black"/>
<path d="M1303 876H1242C1233.2 874.8 1228.33 866.167 1227 862L1227 583C1227 574.2 1218.33 569.333 1214 568H1204C1201.2 568.8 1198.17 571.667 1197 573L915 855C893.8 873 871.5 876.5 863 876C754.333 875.833 531.6 875.6 510 876C488.4 876.4 469 864.167 462 858L201 597C187 581.8 182.5 562 182 554V321.5C182.4 304.3 194.833 286 201 279L463 17C478.2 3.4 500.667 0 510 0H1130C1215 9.5 1213.5 95.5 1181 125.5L879 427.5C870.2 434.3 861.333 437.333 858 438H340C319.2 427.2 325.333 412.833 331 407L446 292H777C802.2 292 820.167 279.333 826 273L922 177C934.8 158.6 920.667 149.333 912 147H572C544 147 525.667 160 520 166.5L261.5 425C253.1 433.4 258 445.166 261.5 450L686.5 875L1103 458C1120.2 440.4 1144.17 436.667 1154 437H1301C1354.2 437 1371.83 485.667 1374 510V798V803C1369.6 859.8 1324.83 875.333 1303 876Z" fill="black"/>
<path d="M1527.92 370.034L1560.6 337.358V500.737C1560.6 503.874 1557.55 507.708 1556.02 509.233L1524 538.641V381.797C1524 375.524 1526.61 371.341 1527.92 370.034Z" fill="black"/>
<path d="M2917.29 370.034L2949.97 337.358L2786.59 337.358C2783.45 337.358 2779.62 340.408 2778.09 341.933L2748.69 373.955L2905.53 373.955C2911.8 373.955 2915.99 371.341 2917.29 370.034Z" fill="black"/>
<path d="M2836.26 443.228C2847.24 443.228 2871.33 418.83 2882 406.631L2748.69 406.631L2748.69 520.342C2748.69 531.321 2761.76 537.116 2768.29 538.641L2949.97 538.641L2949.97 503.351L2783.98 503.351L2783.98 443.228L2836.26 443.228Z" fill="black"/>
<path d="M3051.92 341.279L3019.24 373.955L3182.62 373.955C3185.76 373.955 3189.59 370.905 3191.11 369.381L3220.52 337.358L3063.68 337.358C3057.41 337.358 3053.22 339.972 3051.92 341.279Z" fill="black"/>
<path d="M3055.84 406.631L3020.55 406.631L3020.55 520.342C3020.55 531.844 3033.62 537.334 3040.15 538.641L3223.14 538.641L3223.14 503.351L3055.84 503.351L3055.84 406.631Z" fill="black"/>
<path d="M2508.19 370.034L2475.52 337.358L2638.9 337.358C2642.03 337.358 2645.87 340.408 2647.39 341.933L2676.8 373.955L2519.96 373.955C2513.68 373.955 2509.5 371.341 2508.19 370.034Z" fill="black"/>
<path d="M2594.46 538.641L2594.46 406.631L2559.17 406.631L2559.17 538.641L2594.46 538.641Z" fill="black"/>
<path d="M2238.95 370.034L2206.27 337.358L2369.65 337.358C2372.78 337.358 2376.62 340.408 2378.14 341.933L2407.55 373.955L2250.71 373.955C2244.43 373.955 2240.25 371.341 2238.95 370.034Z" fill="black"/>
<path d="M2242.87 503.351L2242.87 406.631L2206.27 406.631L2206.27 520.342C2206.27 531.844 2219.34 537.334 2225.87 538.641L2387.95 538.641C2403.63 538.641 2408.42 523.828 2408.86 516.421L2408.86 406.631L2372.26 406.631L2372.26 503.351L2242.87 503.351Z" fill="black"/>
<path d="M1661.24 371.341V538.641H1697.83L1697.83 407.938L1828.54 538.641H1863.83V337.358H1828.54V487.667L1692.61 351.736C1682.15 340.234 1674.31 337.358 1671.69 337.358H1648.17C1637.71 338.927 1638.58 346.725 1640.33 350.429L1661.24 371.341Z" fill="black"/>
<path d="M1967.08 341.279L1934.41 373.955L2097.78 373.955C2100.92 373.955 2104.76 370.905 2106.28 369.381L2135.69 337.358L1978.85 337.358C1972.57 337.358 1968.39 339.972 1967.08 341.279Z" fill="black"/>
<path d="M2021.98 444.535C2031.39 444.535 2056.4 420.137 2067.72 407.938L1934.41 407.938L1934.41 538.641L1969.7 538.641L1969.7 444.535L2021.98 444.535Z" fill="black"/>
<path d="M3495 337.358H3458.4V407.938H3495V337.358Z" fill="black"/>
<path d="M3271.5 351.736C3268.36 340.757 3275.42 337.576 3279.34 337.358H3329.01L3329.01 419.701H3474.09C3490.29 419.701 3494.78 433.643 3495 440.614V538.641H3458.4V456.298H3329.01V538.641H3292.41V371.341L3271.5 351.736Z" fill="black"/>
</svg>
