<svg width="27" height="27" viewBox="0 0 27 27" fill="none" xmlns="http://www.w3.org/2000/svg">
<path d="M23.5962 13.5H15.9038C14.5762 13.5 13.5 14.5762 13.5 15.9038V23.5962C13.5 24.9238 14.5762 26 15.9038 26H23.5962C24.9238 26 26 24.9238 26 23.5962V15.9038C26 14.5762 24.9238 13.5 23.5962 13.5Z" stroke="black"/>
<path d="M11.0962 13.5H3.40385C2.07624 13.5 1 14.5762 1 15.9038V23.5962C1 24.9238 2.07624 26 3.40385 26H11.0962C12.4238 26 13.5 24.9238 13.5 23.5962V15.9038C13.5 14.5762 12.4238 13.5 11.0962 13.5Z" stroke="black"/>
<path d="M23.5962 1H15.9038C14.5762 1 13.5 2.07624 13.5 3.40385V11.0962C13.5 12.4238 14.5762 13.5 15.9038 13.5H23.5962C24.9238 13.5 26 12.4238 26 11.0962V3.40385C26 2.07624 24.9238 1 23.5962 1Z" stroke="black"/>
<path d="M11.0962 1H3.40385C2.07624 1 1 2.07624 1 3.40385V11.0962C1 12.4238 2.07624 13.5 3.40385 13.5H11.0962C12.4238 13.5 13.5 12.4238 13.5 11.0962V3.40385C13.5 2.07624 12.4238 1 11.0962 1Z" stroke="black"/>
<path d="M17.8275 6.28906H9.17368C7.58055 6.28906 6.28906 7.58055 6.28906 9.17368V17.8275C6.28906 19.4207 7.58055 20.7121 9.17368 20.7121H17.8275C19.4207 20.7121 20.7121 19.4207 20.7121 17.8275V9.17368C20.7121 7.58055 19.4207 6.28906 17.8275 6.28906Z" fill="black"/>
</svg>
